<mxfile host="app.diagrams.net" agent="Mozilla/5.0 (Windows NT 10.0; Win64; x64) AppleWebKit/537.36 (KHTML, like Gecko) Chrome/134.0.0.0 Safari/537.36" version="26.1.1" pages="4">
  <diagram name="bài 2" id="3pMp4UAglsn9sVNEl8mJ">
    <mxGraphModel grid="1" page="1" gridSize="10" guides="1" tooltips="1" connect="1" arrows="1" fold="1" pageScale="1" pageWidth="827" pageHeight="1169" math="0" shadow="0">
      <root>
        <mxCell id="0" />
        <mxCell id="1" parent="0" />
        <mxCell id="kCWYXcjREjqiMqT6iVx5-8" value="" style="edgeStyle=orthogonalEdgeStyle;rounded=0;orthogonalLoop=1;jettySize=auto;html=1;" edge="1" parent="1" source="kCWYXcjREjqiMqT6iVx5-1" target="kCWYXcjREjqiMqT6iVx5-3">
          <mxGeometry relative="1" as="geometry" />
        </mxCell>
        <mxCell id="kCWYXcjREjqiMqT6iVx5-1" value="input(X, Y)" style="rounded=0;whiteSpace=wrap;html=1;" vertex="1" parent="1">
          <mxGeometry x="310" y="80" width="120" height="60" as="geometry" />
        </mxCell>
        <mxCell id="kCWYXcjREjqiMqT6iVx5-2" value="Y = Y - X" style="rounded=0;whiteSpace=wrap;html=1;" vertex="1" parent="1">
          <mxGeometry x="310" y="460" width="120" height="60" as="geometry" />
        </mxCell>
        <mxCell id="kCWYXcjREjqiMqT6iVx5-7" value="" style="edgeStyle=orthogonalEdgeStyle;rounded=0;orthogonalLoop=1;jettySize=auto;html=1;" edge="1" parent="1" source="kCWYXcjREjqiMqT6iVx5-3" target="kCWYXcjREjqiMqT6iVx5-4">
          <mxGeometry relative="1" as="geometry" />
        </mxCell>
        <mxCell id="kCWYXcjREjqiMqT6iVx5-18" value="" style="edgeStyle=orthogonalEdgeStyle;rounded=0;orthogonalLoop=1;jettySize=auto;html=1;" edge="1" parent="1" source="kCWYXcjREjqiMqT6iVx5-3" target="kCWYXcjREjqiMqT6iVx5-16">
          <mxGeometry relative="1" as="geometry" />
        </mxCell>
        <mxCell id="kCWYXcjREjqiMqT6iVx5-3" value="Y &amp;gt; 0" style="rhombus;whiteSpace=wrap;html=1;" vertex="1" parent="1">
          <mxGeometry x="315" y="190" width="110" height="80" as="geometry" />
        </mxCell>
        <mxCell id="kCWYXcjREjqiMqT6iVx5-9" value="" style="edgeStyle=orthogonalEdgeStyle;rounded=0;orthogonalLoop=1;jettySize=auto;html=1;" edge="1" parent="1" source="kCWYXcjREjqiMqT6iVx5-4" target="kCWYXcjREjqiMqT6iVx5-6">
          <mxGeometry relative="1" as="geometry" />
        </mxCell>
        <mxCell id="kCWYXcjREjqiMqT6iVx5-12" value="" style="edgeStyle=orthogonalEdgeStyle;rounded=0;orthogonalLoop=1;jettySize=auto;html=1;" edge="1" parent="1" source="kCWYXcjREjqiMqT6iVx5-4" target="kCWYXcjREjqiMqT6iVx5-2">
          <mxGeometry relative="1" as="geometry" />
        </mxCell>
        <mxCell id="kCWYXcjREjqiMqT6iVx5-4" value="X &amp;gt; 0" style="rhombus;whiteSpace=wrap;html=1;" vertex="1" parent="1">
          <mxGeometry x="315" y="320" width="110" height="80" as="geometry" />
        </mxCell>
        <mxCell id="kCWYXcjREjqiMqT6iVx5-6" value="input(X)" style="rounded=0;whiteSpace=wrap;html=1;" vertex="1" parent="1">
          <mxGeometry x="480" y="330" width="120" height="60" as="geometry" />
        </mxCell>
        <mxCell id="kCWYXcjREjqiMqT6iVx5-11" value="" style="endArrow=classic;html=1;rounded=0;exitX=0.5;exitY=0;exitDx=0;exitDy=0;entryX=1;entryY=1;entryDx=0;entryDy=0;" edge="1" parent="1" source="kCWYXcjREjqiMqT6iVx5-6" target="kCWYXcjREjqiMqT6iVx5-3">
          <mxGeometry width="50" height="50" relative="1" as="geometry">
            <mxPoint x="390" y="400" as="sourcePoint" />
            <mxPoint x="440" y="350" as="targetPoint" />
          </mxGeometry>
        </mxCell>
        <mxCell id="kCWYXcjREjqiMqT6iVx5-13" value="" style="endArrow=none;html=1;rounded=0;exitX=1;exitY=0.5;exitDx=0;exitDy=0;" edge="1" parent="1" source="kCWYXcjREjqiMqT6iVx5-2">
          <mxGeometry width="50" height="50" relative="1" as="geometry">
            <mxPoint x="390" y="390" as="sourcePoint" />
            <mxPoint x="660" y="490" as="targetPoint" />
          </mxGeometry>
        </mxCell>
        <mxCell id="kCWYXcjREjqiMqT6iVx5-14" value="" style="endArrow=none;html=1;rounded=0;" edge="1" parent="1">
          <mxGeometry width="50" height="50" relative="1" as="geometry">
            <mxPoint x="660" y="490" as="sourcePoint" />
            <mxPoint x="660" y="230" as="targetPoint" />
          </mxGeometry>
        </mxCell>
        <mxCell id="kCWYXcjREjqiMqT6iVx5-15" value="" style="endArrow=classic;html=1;rounded=0;entryX=1;entryY=0.5;entryDx=0;entryDy=0;" edge="1" parent="1" target="kCWYXcjREjqiMqT6iVx5-3">
          <mxGeometry width="50" height="50" relative="1" as="geometry">
            <mxPoint x="660" y="230" as="sourcePoint" />
            <mxPoint x="440" y="340" as="targetPoint" />
          </mxGeometry>
        </mxCell>
        <mxCell id="kCWYXcjREjqiMqT6iVx5-19" value="" style="edgeStyle=orthogonalEdgeStyle;rounded=0;orthogonalLoop=1;jettySize=auto;html=1;" edge="1" parent="1" source="kCWYXcjREjqiMqT6iVx5-16" target="kCWYXcjREjqiMqT6iVx5-17">
          <mxGeometry relative="1" as="geometry" />
        </mxCell>
        <mxCell id="kCWYXcjREjqiMqT6iVx5-16" value="output(X, Y)" style="rounded=0;whiteSpace=wrap;html=1;" vertex="1" parent="1">
          <mxGeometry x="140" y="200" width="120" height="60" as="geometry" />
        </mxCell>
        <mxCell id="kCWYXcjREjqiMqT6iVx5-17" value="exit" style="rounded=0;whiteSpace=wrap;html=1;" vertex="1" parent="1">
          <mxGeometry x="140" y="330" width="120" height="60" as="geometry" />
        </mxCell>
        <mxCell id="kCWYXcjREjqiMqT6iVx5-20" value="(1)" style="text;html=1;align=center;verticalAlign=middle;whiteSpace=wrap;rounded=0;" vertex="1" parent="1">
          <mxGeometry x="255" y="90" width="60" height="30" as="geometry" />
        </mxCell>
        <mxCell id="kCWYXcjREjqiMqT6iVx5-21" value="(2)" style="text;html=1;align=center;verticalAlign=middle;whiteSpace=wrap;rounded=0;" vertex="1" parent="1">
          <mxGeometry x="310" y="180" width="60" height="30" as="geometry" />
        </mxCell>
        <mxCell id="kCWYXcjREjqiMqT6iVx5-22" value="(3)" style="text;html=1;align=center;verticalAlign=middle;whiteSpace=wrap;rounded=0;" vertex="1" parent="1">
          <mxGeometry x="310" y="310" width="60" height="30" as="geometry" />
        </mxCell>
        <mxCell id="kCWYXcjREjqiMqT6iVx5-23" value="(4)" style="text;html=1;align=center;verticalAlign=middle;whiteSpace=wrap;rounded=0;" vertex="1" parent="1">
          <mxGeometry x="310" y="430" width="60" height="30" as="geometry" />
        </mxCell>
        <mxCell id="kCWYXcjREjqiMqT6iVx5-24" value="(5)" style="text;html=1;align=center;verticalAlign=middle;whiteSpace=wrap;rounded=0;" vertex="1" parent="1">
          <mxGeometry x="510" y="390" width="60" height="30" as="geometry" />
        </mxCell>
        <mxCell id="kCWYXcjREjqiMqT6iVx5-25" value="(6)" style="text;html=1;align=center;verticalAlign=middle;whiteSpace=wrap;rounded=0;" vertex="1" parent="1">
          <mxGeometry x="170" y="170" width="60" height="30" as="geometry" />
        </mxCell>
        <mxCell id="kCWYXcjREjqiMqT6iVx5-26" value="(7)" style="text;html=1;align=center;verticalAlign=middle;whiteSpace=wrap;rounded=0;" vertex="1" parent="1">
          <mxGeometry x="170" y="390" width="60" height="30" as="geometry" />
        </mxCell>
        <mxCell id="kCWYXcjREjqiMqT6iVx5-27" value="T" style="text;html=1;align=center;verticalAlign=middle;whiteSpace=wrap;rounded=0;" vertex="1" parent="1">
          <mxGeometry x="320" y="270" width="60" height="30" as="geometry" />
        </mxCell>
        <mxCell id="kCWYXcjREjqiMqT6iVx5-28" value="F" style="text;html=1;align=center;verticalAlign=middle;whiteSpace=wrap;rounded=0;" vertex="1" parent="1">
          <mxGeometry x="420" y="330" width="60" height="30" as="geometry" />
        </mxCell>
        <mxCell id="kCWYXcjREjqiMqT6iVx5-29" value="T" style="text;html=1;align=center;verticalAlign=middle;whiteSpace=wrap;rounded=0;" vertex="1" parent="1">
          <mxGeometry x="320" y="400" width="60" height="30" as="geometry" />
        </mxCell>
        <mxCell id="kCWYXcjREjqiMqT6iVx5-30" value="F" style="text;html=1;align=center;verticalAlign=middle;whiteSpace=wrap;rounded=0;" vertex="1" parent="1">
          <mxGeometry x="260" y="200" width="60" height="30" as="geometry" />
        </mxCell>
      </root>
    </mxGraphModel>
  </diagram>
  <diagram id="vCNv8A7r5MRVgCLiwk46" name="bài 3">
    <mxGraphModel grid="1" page="1" gridSize="10" guides="1" tooltips="1" connect="1" arrows="1" fold="1" pageScale="1" pageWidth="827" pageHeight="1169" math="0" shadow="0">
      <root>
        <mxCell id="0" />
        <mxCell id="1" parent="0" />
        <mxCell id="p5n3lE_oCdn0xatNONNV-10" value="" style="edgeStyle=orthogonalEdgeStyle;rounded=0;orthogonalLoop=1;jettySize=auto;html=1;" edge="1" parent="1" source="p5n3lE_oCdn0xatNONNV-1" target="p5n3lE_oCdn0xatNONNV-2">
          <mxGeometry relative="1" as="geometry" />
        </mxCell>
        <mxCell id="p5n3lE_oCdn0xatNONNV-1" value="entry" style="rounded=0;whiteSpace=wrap;html=1;" vertex="1" parent="1">
          <mxGeometry x="200" y="100" width="120" height="60" as="geometry" />
        </mxCell>
        <mxCell id="p5n3lE_oCdn0xatNONNV-11" value="" style="edgeStyle=orthogonalEdgeStyle;rounded=0;orthogonalLoop=1;jettySize=auto;html=1;" edge="1" parent="1" source="p5n3lE_oCdn0xatNONNV-2" target="p5n3lE_oCdn0xatNONNV-3">
          <mxGeometry relative="1" as="geometry" />
        </mxCell>
        <mxCell id="p5n3lE_oCdn0xatNONNV-2" value="int result = 1" style="rounded=0;whiteSpace=wrap;html=1;" vertex="1" parent="1">
          <mxGeometry x="200" y="210" width="120" height="60" as="geometry" />
        </mxCell>
        <mxCell id="p5n3lE_oCdn0xatNONNV-12" value="" style="edgeStyle=orthogonalEdgeStyle;rounded=0;orthogonalLoop=1;jettySize=auto;html=1;" edge="1" parent="1" source="p5n3lE_oCdn0xatNONNV-3" target="p5n3lE_oCdn0xatNONNV-4">
          <mxGeometry relative="1" as="geometry" />
        </mxCell>
        <mxCell id="p5n3lE_oCdn0xatNONNV-3" value="int i = 1" style="rounded=0;whiteSpace=wrap;html=1;" vertex="1" parent="1">
          <mxGeometry x="200" y="320" width="120" height="60" as="geometry" />
        </mxCell>
        <mxCell id="p5n3lE_oCdn0xatNONNV-13" value="" style="edgeStyle=orthogonalEdgeStyle;rounded=0;orthogonalLoop=1;jettySize=auto;html=1;" edge="1" parent="1" source="p5n3lE_oCdn0xatNONNV-4" target="p5n3lE_oCdn0xatNONNV-7">
          <mxGeometry relative="1" as="geometry" />
        </mxCell>
        <mxCell id="p5n3lE_oCdn0xatNONNV-15" value="" style="edgeStyle=orthogonalEdgeStyle;rounded=0;orthogonalLoop=1;jettySize=auto;html=1;" edge="1" parent="1" source="p5n3lE_oCdn0xatNONNV-4" target="p5n3lE_oCdn0xatNONNV-5">
          <mxGeometry relative="1" as="geometry" />
        </mxCell>
        <mxCell id="p5n3lE_oCdn0xatNONNV-4" value="i &amp;lt;= n" style="rhombus;whiteSpace=wrap;html=1;" vertex="1" parent="1">
          <mxGeometry x="205" y="430" width="110" height="80" as="geometry" />
        </mxCell>
        <mxCell id="p5n3lE_oCdn0xatNONNV-16" value="" style="edgeStyle=orthogonalEdgeStyle;rounded=0;orthogonalLoop=1;jettySize=auto;html=1;" edge="1" parent="1" source="p5n3lE_oCdn0xatNONNV-5" target="p5n3lE_oCdn0xatNONNV-6">
          <mxGeometry relative="1" as="geometry" />
        </mxCell>
        <mxCell id="p5n3lE_oCdn0xatNONNV-5" value="return result" style="rounded=0;whiteSpace=wrap;html=1;" vertex="1" parent="1">
          <mxGeometry x="30" y="440" width="120" height="60" as="geometry" />
        </mxCell>
        <mxCell id="p5n3lE_oCdn0xatNONNV-6" value="exit" style="rounded=0;whiteSpace=wrap;html=1;" vertex="1" parent="1">
          <mxGeometry x="30" y="555" width="120" height="60" as="geometry" />
        </mxCell>
        <mxCell id="p5n3lE_oCdn0xatNONNV-14" value="" style="edgeStyle=orthogonalEdgeStyle;rounded=0;orthogonalLoop=1;jettySize=auto;html=1;" edge="1" parent="1" source="p5n3lE_oCdn0xatNONNV-7" target="p5n3lE_oCdn0xatNONNV-9">
          <mxGeometry relative="1" as="geometry" />
        </mxCell>
        <mxCell id="p5n3lE_oCdn0xatNONNV-7" value="result = result * i" style="rounded=0;whiteSpace=wrap;html=1;" vertex="1" parent="1">
          <mxGeometry x="200" y="560" width="120" height="60" as="geometry" />
        </mxCell>
        <mxCell id="p5n3lE_oCdn0xatNONNV-9" value="i++" style="rounded=0;whiteSpace=wrap;html=1;" vertex="1" parent="1">
          <mxGeometry x="200" y="680" width="120" height="60" as="geometry" />
        </mxCell>
        <mxCell id="p5n3lE_oCdn0xatNONNV-17" value="(1)" style="text;html=1;align=center;verticalAlign=middle;whiteSpace=wrap;rounded=0;" vertex="1" parent="1">
          <mxGeometry x="145" y="115" width="60" height="30" as="geometry" />
        </mxCell>
        <mxCell id="p5n3lE_oCdn0xatNONNV-18" value="(2)" style="text;html=1;align=center;verticalAlign=middle;whiteSpace=wrap;rounded=0;" vertex="1" parent="1">
          <mxGeometry x="145" y="220" width="60" height="30" as="geometry" />
        </mxCell>
        <mxCell id="p5n3lE_oCdn0xatNONNV-19" value="(3)" style="text;html=1;align=center;verticalAlign=middle;whiteSpace=wrap;rounded=0;" vertex="1" parent="1">
          <mxGeometry x="145" y="335" width="60" height="30" as="geometry" />
        </mxCell>
        <mxCell id="p5n3lE_oCdn0xatNONNV-20" value="(4)" style="text;html=1;align=center;verticalAlign=middle;whiteSpace=wrap;rounded=0;" vertex="1" parent="1">
          <mxGeometry x="200" y="420" width="60" height="30" as="geometry" />
        </mxCell>
        <mxCell id="p5n3lE_oCdn0xatNONNV-21" value="(5)" style="text;html=1;align=center;verticalAlign=middle;whiteSpace=wrap;rounded=0;" vertex="1" parent="1">
          <mxGeometry x="200" y="530" width="60" height="30" as="geometry" />
        </mxCell>
        <mxCell id="p5n3lE_oCdn0xatNONNV-22" value="(6)" style="text;html=1;align=center;verticalAlign=middle;whiteSpace=wrap;rounded=0;" vertex="1" parent="1">
          <mxGeometry x="200" y="650" width="60" height="30" as="geometry" />
        </mxCell>
        <mxCell id="p5n3lE_oCdn0xatNONNV-23" value="(7)" style="text;html=1;align=center;verticalAlign=middle;whiteSpace=wrap;rounded=0;" vertex="1" parent="1">
          <mxGeometry x="60" y="410" width="60" height="30" as="geometry" />
        </mxCell>
        <mxCell id="p5n3lE_oCdn0xatNONNV-24" value="(8)" style="text;html=1;align=center;verticalAlign=middle;whiteSpace=wrap;rounded=0;" vertex="1" parent="1">
          <mxGeometry x="60" y="620" width="60" height="30" as="geometry" />
        </mxCell>
        <mxCell id="p5n3lE_oCdn0xatNONNV-25" value="F" style="text;html=1;align=center;verticalAlign=middle;whiteSpace=wrap;rounded=0;" vertex="1" parent="1">
          <mxGeometry x="150" y="440" width="60" height="30" as="geometry" />
        </mxCell>
        <mxCell id="p5n3lE_oCdn0xatNONNV-26" value="T" style="text;html=1;align=center;verticalAlign=middle;whiteSpace=wrap;rounded=0;" vertex="1" parent="1">
          <mxGeometry x="250" y="510" width="60" height="30" as="geometry" />
        </mxCell>
        <mxCell id="p5n3lE_oCdn0xatNONNV-27" value="" style="endArrow=none;html=1;rounded=0;exitX=1;exitY=0.5;exitDx=0;exitDy=0;" edge="1" parent="1" source="p5n3lE_oCdn0xatNONNV-9">
          <mxGeometry width="50" height="50" relative="1" as="geometry">
            <mxPoint x="250" y="510" as="sourcePoint" />
            <mxPoint x="390" y="710" as="targetPoint" />
          </mxGeometry>
        </mxCell>
        <mxCell id="p5n3lE_oCdn0xatNONNV-28" value="" style="endArrow=none;html=1;rounded=0;" edge="1" parent="1">
          <mxGeometry width="50" height="50" relative="1" as="geometry">
            <mxPoint x="390" y="710" as="sourcePoint" />
            <mxPoint x="390" y="470" as="targetPoint" />
          </mxGeometry>
        </mxCell>
        <mxCell id="p5n3lE_oCdn0xatNONNV-29" value="" style="endArrow=classic;html=1;rounded=0;entryX=1;entryY=0.5;entryDx=0;entryDy=0;" edge="1" parent="1" target="p5n3lE_oCdn0xatNONNV-4">
          <mxGeometry width="50" height="50" relative="1" as="geometry">
            <mxPoint x="390" y="470" as="sourcePoint" />
            <mxPoint x="300" y="460" as="targetPoint" />
          </mxGeometry>
        </mxCell>
      </root>
    </mxGraphModel>
  </diagram>
  <diagram id="1h2Nvasi9CxJHaM_42Wl" name="bài 5">
    <mxGraphModel grid="1" page="1" gridSize="10" guides="1" tooltips="1" connect="1" arrows="1" fold="1" pageScale="1" pageWidth="827" pageHeight="1169" math="0" shadow="0">
      <root>
        <mxCell id="0" />
        <mxCell id="1" parent="0" />
        <mxCell id="56dI61OKMQIGnu3YNWZv-4" value="" style="edgeStyle=orthogonalEdgeStyle;rounded=0;orthogonalLoop=1;jettySize=auto;html=1;" edge="1" parent="1" source="56dI61OKMQIGnu3YNWZv-1" target="56dI61OKMQIGnu3YNWZv-3">
          <mxGeometry relative="1" as="geometry" />
        </mxCell>
        <mxCell id="56dI61OKMQIGnu3YNWZv-1" value="entry" style="rounded=0;whiteSpace=wrap;html=1;" vertex="1" parent="1">
          <mxGeometry x="240" y="90" width="120" height="60" as="geometry" />
        </mxCell>
        <mxCell id="56dI61OKMQIGnu3YNWZv-2" value="m = -m" style="rounded=0;whiteSpace=wrap;html=1;" vertex="1" parent="1">
          <mxGeometry x="400" y="230" width="120" height="60" as="geometry" />
        </mxCell>
        <mxCell id="56dI61OKMQIGnu3YNWZv-9" value="" style="edgeStyle=orthogonalEdgeStyle;rounded=0;orthogonalLoop=1;jettySize=auto;html=1;" edge="1" parent="1" source="56dI61OKMQIGnu3YNWZv-3" target="56dI61OKMQIGnu3YNWZv-6">
          <mxGeometry relative="1" as="geometry" />
        </mxCell>
        <mxCell id="56dI61OKMQIGnu3YNWZv-3" value="m &amp;lt; 0" style="rhombus;whiteSpace=wrap;html=1;" vertex="1" parent="1">
          <mxGeometry x="240" y="180" width="120" height="80" as="geometry" />
        </mxCell>
        <mxCell id="56dI61OKMQIGnu3YNWZv-14" value="" style="edgeStyle=orthogonalEdgeStyle;rounded=0;orthogonalLoop=1;jettySize=auto;html=1;" edge="1" parent="1" source="56dI61OKMQIGnu3YNWZv-6" target="56dI61OKMQIGnu3YNWZv-11">
          <mxGeometry relative="1" as="geometry" />
        </mxCell>
        <mxCell id="56dI61OKMQIGnu3YNWZv-6" value="n &amp;lt; 0" style="rhombus;whiteSpace=wrap;html=1;" vertex="1" parent="1">
          <mxGeometry x="243.75" y="290" width="112.5" height="80" as="geometry" />
        </mxCell>
        <mxCell id="56dI61OKMQIGnu3YNWZv-7" value="n = -n" style="rounded=0;whiteSpace=wrap;html=1;" vertex="1" parent="1">
          <mxGeometry x="400" y="340" width="120" height="60" as="geometry" />
        </mxCell>
        <mxCell id="56dI61OKMQIGnu3YNWZv-15" value="" style="edgeStyle=orthogonalEdgeStyle;rounded=0;orthogonalLoop=1;jettySize=auto;html=1;" edge="1" parent="1" source="56dI61OKMQIGnu3YNWZv-11" target="56dI61OKMQIGnu3YNWZv-13">
          <mxGeometry relative="1" as="geometry" />
        </mxCell>
        <mxCell id="56dI61OKMQIGnu3YNWZv-11" value="m == 0" style="rhombus;whiteSpace=wrap;html=1;" vertex="1" parent="1">
          <mxGeometry x="243.75" y="400" width="112.5" height="80" as="geometry" />
        </mxCell>
        <mxCell id="56dI61OKMQIGnu3YNWZv-20" value="" style="edgeStyle=orthogonalEdgeStyle;rounded=0;orthogonalLoop=1;jettySize=auto;html=1;" edge="1" parent="1" source="56dI61OKMQIGnu3YNWZv-13" target="56dI61OKMQIGnu3YNWZv-19">
          <mxGeometry relative="1" as="geometry" />
        </mxCell>
        <mxCell id="56dI61OKMQIGnu3YNWZv-13" value="n == 0" style="rhombus;whiteSpace=wrap;html=1;" vertex="1" parent="1">
          <mxGeometry x="243.75" y="510" width="112.5" height="80" as="geometry" />
        </mxCell>
        <mxCell id="56dI61OKMQIGnu3YNWZv-16" value="return n" style="rounded=0;whiteSpace=wrap;html=1;" vertex="1" parent="1">
          <mxGeometry x="400" y="450" width="120" height="60" as="geometry" />
        </mxCell>
        <mxCell id="56dI61OKMQIGnu3YNWZv-35" value="" style="edgeStyle=orthogonalEdgeStyle;rounded=0;orthogonalLoop=1;jettySize=auto;html=1;" edge="1" parent="1" source="56dI61OKMQIGnu3YNWZv-17" target="56dI61OKMQIGnu3YNWZv-34">
          <mxGeometry relative="1" as="geometry" />
        </mxCell>
        <mxCell id="56dI61OKMQIGnu3YNWZv-17" value="return m" style="rounded=0;whiteSpace=wrap;html=1;" vertex="1" parent="1">
          <mxGeometry x="400" y="560" width="120" height="60" as="geometry" />
        </mxCell>
        <mxCell id="56dI61OKMQIGnu3YNWZv-22" value="" style="edgeStyle=orthogonalEdgeStyle;rounded=0;orthogonalLoop=1;jettySize=auto;html=1;" edge="1" parent="1" source="56dI61OKMQIGnu3YNWZv-19" target="56dI61OKMQIGnu3YNWZv-21">
          <mxGeometry relative="1" as="geometry" />
        </mxCell>
        <mxCell id="56dI61OKMQIGnu3YNWZv-19" value="m != n" style="rhombus;whiteSpace=wrap;html=1;" vertex="1" parent="1">
          <mxGeometry x="243.75" y="620" width="112.5" height="80" as="geometry" />
        </mxCell>
        <mxCell id="56dI61OKMQIGnu3YNWZv-26" value="" style="edgeStyle=orthogonalEdgeStyle;rounded=0;orthogonalLoop=1;jettySize=auto;html=1;" edge="1" parent="1" source="56dI61OKMQIGnu3YNWZv-21" target="56dI61OKMQIGnu3YNWZv-23">
          <mxGeometry relative="1" as="geometry" />
        </mxCell>
        <mxCell id="56dI61OKMQIGnu3YNWZv-27" value="" style="edgeStyle=orthogonalEdgeStyle;rounded=0;orthogonalLoop=1;jettySize=auto;html=1;" edge="1" parent="1" source="56dI61OKMQIGnu3YNWZv-21" target="56dI61OKMQIGnu3YNWZv-25">
          <mxGeometry relative="1" as="geometry" />
        </mxCell>
        <mxCell id="56dI61OKMQIGnu3YNWZv-21" value="m &amp;gt; n" style="rhombus;whiteSpace=wrap;html=1;" vertex="1" parent="1">
          <mxGeometry x="243.75" y="730" width="112.5" height="80" as="geometry" />
        </mxCell>
        <mxCell id="56dI61OKMQIGnu3YNWZv-23" value="m = m - n" style="rounded=0;whiteSpace=wrap;html=1;" vertex="1" parent="1">
          <mxGeometry x="240" y="840" width="120" height="60" as="geometry" />
        </mxCell>
        <mxCell id="56dI61OKMQIGnu3YNWZv-25" value="n = n - m" style="rounded=0;whiteSpace=wrap;html=1;" vertex="1" parent="1">
          <mxGeometry x="80" y="740" width="120" height="60" as="geometry" />
        </mxCell>
        <mxCell id="56dI61OKMQIGnu3YNWZv-29" value="" style="endArrow=classic;html=1;rounded=0;exitX=0.5;exitY=0;exitDx=0;exitDy=0;entryX=0;entryY=1;entryDx=0;entryDy=0;" edge="1" parent="1" source="56dI61OKMQIGnu3YNWZv-25" target="56dI61OKMQIGnu3YNWZv-19">
          <mxGeometry width="50" height="50" relative="1" as="geometry">
            <mxPoint x="190" y="710" as="sourcePoint" />
            <mxPoint x="240" y="660" as="targetPoint" />
          </mxGeometry>
        </mxCell>
        <mxCell id="56dI61OKMQIGnu3YNWZv-30" value="" style="endArrow=none;html=1;rounded=0;exitX=0;exitY=0.5;exitDx=0;exitDy=0;" edge="1" parent="1" source="56dI61OKMQIGnu3YNWZv-23">
          <mxGeometry width="50" height="50" relative="1" as="geometry">
            <mxPoint x="190" y="710" as="sourcePoint" />
            <mxPoint x="50" y="870" as="targetPoint" />
          </mxGeometry>
        </mxCell>
        <mxCell id="56dI61OKMQIGnu3YNWZv-31" value="" style="endArrow=none;html=1;rounded=0;" edge="1" parent="1">
          <mxGeometry width="50" height="50" relative="1" as="geometry">
            <mxPoint x="50" y="870" as="sourcePoint" />
            <mxPoint x="50" y="660" as="targetPoint" />
          </mxGeometry>
        </mxCell>
        <mxCell id="56dI61OKMQIGnu3YNWZv-32" value="" style="endArrow=classic;html=1;rounded=0;entryX=0;entryY=0.5;entryDx=0;entryDy=0;" edge="1" parent="1" target="56dI61OKMQIGnu3YNWZv-19">
          <mxGeometry width="50" height="50" relative="1" as="geometry">
            <mxPoint x="50" y="660" as="sourcePoint" />
            <mxPoint x="240" y="660" as="targetPoint" />
          </mxGeometry>
        </mxCell>
        <mxCell id="56dI61OKMQIGnu3YNWZv-33" value="return m" style="rounded=0;whiteSpace=wrap;html=1;" vertex="1" parent="1">
          <mxGeometry x="400" y="670" width="120" height="60" as="geometry" />
        </mxCell>
        <mxCell id="56dI61OKMQIGnu3YNWZv-34" value="exit" style="rounded=0;whiteSpace=wrap;html=1;" vertex="1" parent="1">
          <mxGeometry x="590" y="560" width="120" height="60" as="geometry" />
        </mxCell>
        <mxCell id="56dI61OKMQIGnu3YNWZv-36" value="" style="endArrow=classic;html=1;rounded=0;exitX=1;exitY=0.5;exitDx=0;exitDy=0;entryX=0.5;entryY=1;entryDx=0;entryDy=0;" edge="1" parent="1" source="56dI61OKMQIGnu3YNWZv-33" target="56dI61OKMQIGnu3YNWZv-34">
          <mxGeometry width="50" height="50" relative="1" as="geometry">
            <mxPoint x="400" y="620" as="sourcePoint" />
            <mxPoint x="450" y="570" as="targetPoint" />
          </mxGeometry>
        </mxCell>
        <mxCell id="56dI61OKMQIGnu3YNWZv-37" value="" style="endArrow=classic;html=1;rounded=0;exitX=1;exitY=0.5;exitDx=0;exitDy=0;entryX=0.5;entryY=0;entryDx=0;entryDy=0;" edge="1" parent="1" source="56dI61OKMQIGnu3YNWZv-16" target="56dI61OKMQIGnu3YNWZv-34">
          <mxGeometry width="50" height="50" relative="1" as="geometry">
            <mxPoint x="400" y="620" as="sourcePoint" />
            <mxPoint x="450" y="570" as="targetPoint" />
          </mxGeometry>
        </mxCell>
        <mxCell id="56dI61OKMQIGnu3YNWZv-39" value="" style="endArrow=classic;html=1;rounded=0;exitX=1;exitY=1;exitDx=0;exitDy=0;entryX=0;entryY=0.5;entryDx=0;entryDy=0;" edge="1" parent="1" source="56dI61OKMQIGnu3YNWZv-19" target="56dI61OKMQIGnu3YNWZv-33">
          <mxGeometry width="50" height="50" relative="1" as="geometry">
            <mxPoint x="350" y="720" as="sourcePoint" />
            <mxPoint x="400" y="670" as="targetPoint" />
          </mxGeometry>
        </mxCell>
        <mxCell id="56dI61OKMQIGnu3YNWZv-40" value="" style="endArrow=classic;html=1;rounded=0;exitX=1;exitY=1;exitDx=0;exitDy=0;entryX=0;entryY=0.5;entryDx=0;entryDy=0;" edge="1" parent="1" source="56dI61OKMQIGnu3YNWZv-3" target="56dI61OKMQIGnu3YNWZv-2">
          <mxGeometry width="50" height="50" relative="1" as="geometry">
            <mxPoint x="270" y="380" as="sourcePoint" />
            <mxPoint x="320" y="330" as="targetPoint" />
          </mxGeometry>
        </mxCell>
        <mxCell id="56dI61OKMQIGnu3YNWZv-41" value="(1)" style="text;html=1;align=center;verticalAlign=middle;whiteSpace=wrap;rounded=0;" vertex="1" parent="1">
          <mxGeometry x="183.75" y="100" width="60" height="30" as="geometry" />
        </mxCell>
        <mxCell id="56dI61OKMQIGnu3YNWZv-42" value="(2)" style="text;html=1;align=center;verticalAlign=middle;whiteSpace=wrap;rounded=0;" vertex="1" parent="1">
          <mxGeometry x="183.75" y="205" width="60" height="30" as="geometry" />
        </mxCell>
        <mxCell id="56dI61OKMQIGnu3YNWZv-43" value="(3)" style="text;html=1;align=center;verticalAlign=middle;whiteSpace=wrap;rounded=0;" vertex="1" parent="1">
          <mxGeometry x="430" y="200" width="60" height="30" as="geometry" />
        </mxCell>
        <mxCell id="56dI61OKMQIGnu3YNWZv-44" value="(4)" style="text;html=1;align=center;verticalAlign=middle;whiteSpace=wrap;rounded=0;" vertex="1" parent="1">
          <mxGeometry x="183.75" y="310" width="60" height="30" as="geometry" />
        </mxCell>
        <mxCell id="56dI61OKMQIGnu3YNWZv-45" value="(5)" style="text;html=1;align=center;verticalAlign=middle;whiteSpace=wrap;rounded=0;" vertex="1" parent="1">
          <mxGeometry x="430" y="315" width="60" height="30" as="geometry" />
        </mxCell>
        <mxCell id="56dI61OKMQIGnu3YNWZv-46" value="(6)" style="text;html=1;align=center;verticalAlign=middle;whiteSpace=wrap;rounded=0;" vertex="1" parent="1">
          <mxGeometry x="183.75" y="420" width="60" height="30" as="geometry" />
        </mxCell>
        <mxCell id="56dI61OKMQIGnu3YNWZv-47" value="(7)" style="text;html=1;align=center;verticalAlign=middle;whiteSpace=wrap;rounded=0;" vertex="1" parent="1">
          <mxGeometry x="430" y="425" width="60" height="30" as="geometry" />
        </mxCell>
        <mxCell id="56dI61OKMQIGnu3YNWZv-48" value="(8)" style="text;html=1;align=center;verticalAlign=middle;whiteSpace=wrap;rounded=0;" vertex="1" parent="1">
          <mxGeometry x="183.75" y="530" width="60" height="30" as="geometry" />
        </mxCell>
        <mxCell id="56dI61OKMQIGnu3YNWZv-49" value="(9)" style="text;html=1;align=center;verticalAlign=middle;whiteSpace=wrap;rounded=0;" vertex="1" parent="1">
          <mxGeometry x="430" y="535" width="60" height="30" as="geometry" />
        </mxCell>
        <mxCell id="56dI61OKMQIGnu3YNWZv-50" value="(10)" style="text;html=1;align=center;verticalAlign=middle;whiteSpace=wrap;rounded=0;" vertex="1" parent="1">
          <mxGeometry x="230" y="610" width="60" height="30" as="geometry" />
        </mxCell>
        <mxCell id="56dI61OKMQIGnu3YNWZv-51" value="(11)" style="text;html=1;align=center;verticalAlign=middle;whiteSpace=wrap;rounded=0;" vertex="1" parent="1">
          <mxGeometry x="230" y="720" width="60" height="30" as="geometry" />
        </mxCell>
        <mxCell id="56dI61OKMQIGnu3YNWZv-52" value="(12)" style="text;html=1;align=center;verticalAlign=middle;whiteSpace=wrap;rounded=0;" vertex="1" parent="1">
          <mxGeometry x="230" y="810" width="60" height="30" as="geometry" />
        </mxCell>
        <mxCell id="56dI61OKMQIGnu3YNWZv-53" value="(13)" style="text;html=1;align=center;verticalAlign=middle;whiteSpace=wrap;rounded=0;" vertex="1" parent="1">
          <mxGeometry x="90" y="710" width="60" height="30" as="geometry" />
        </mxCell>
        <mxCell id="56dI61OKMQIGnu3YNWZv-54" value="(14)" style="text;html=1;align=center;verticalAlign=middle;whiteSpace=wrap;rounded=0;" vertex="1" parent="1">
          <mxGeometry x="430" y="645" width="60" height="30" as="geometry" />
        </mxCell>
        <mxCell id="56dI61OKMQIGnu3YNWZv-55" value="(15)" style="text;html=1;align=center;verticalAlign=middle;whiteSpace=wrap;rounded=0;" vertex="1" parent="1">
          <mxGeometry x="700" y="575" width="60" height="30" as="geometry" />
        </mxCell>
        <mxCell id="56dI61OKMQIGnu3YNWZv-56" value="T" style="text;html=1;align=center;verticalAlign=middle;whiteSpace=wrap;rounded=0;" vertex="1" parent="1">
          <mxGeometry x="340" y="220" width="60" height="30" as="geometry" />
        </mxCell>
        <mxCell id="56dI61OKMQIGnu3YNWZv-57" value="F" style="text;html=1;align=center;verticalAlign=middle;whiteSpace=wrap;rounded=0;" vertex="1" parent="1">
          <mxGeometry x="250" y="260" width="60" height="30" as="geometry" />
        </mxCell>
        <mxCell id="56dI61OKMQIGnu3YNWZv-58" value="" style="endArrow=classic;html=1;rounded=0;exitX=0;exitY=0.75;exitDx=0;exitDy=0;entryX=1;entryY=0;entryDx=0;entryDy=0;" edge="1" parent="1" source="56dI61OKMQIGnu3YNWZv-2" target="56dI61OKMQIGnu3YNWZv-6">
          <mxGeometry width="50" height="50" relative="1" as="geometry">
            <mxPoint x="310" y="420" as="sourcePoint" />
            <mxPoint x="360" y="370" as="targetPoint" />
          </mxGeometry>
        </mxCell>
        <mxCell id="56dI61OKMQIGnu3YNWZv-59" value="" style="endArrow=classic;html=1;rounded=0;exitX=1;exitY=1;exitDx=0;exitDy=0;entryX=0;entryY=0.5;entryDx=0;entryDy=0;" edge="1" parent="1" source="56dI61OKMQIGnu3YNWZv-6" target="56dI61OKMQIGnu3YNWZv-7">
          <mxGeometry width="50" height="50" relative="1" as="geometry">
            <mxPoint x="310" y="420" as="sourcePoint" />
            <mxPoint x="360" y="370" as="targetPoint" />
          </mxGeometry>
        </mxCell>
        <mxCell id="56dI61OKMQIGnu3YNWZv-60" value="" style="endArrow=classic;html=1;rounded=0;exitX=0;exitY=0.75;exitDx=0;exitDy=0;entryX=1;entryY=0;entryDx=0;entryDy=0;" edge="1" parent="1" source="56dI61OKMQIGnu3YNWZv-7" target="56dI61OKMQIGnu3YNWZv-11">
          <mxGeometry width="50" height="50" relative="1" as="geometry">
            <mxPoint x="310" y="420" as="sourcePoint" />
            <mxPoint x="360" y="370" as="targetPoint" />
          </mxGeometry>
        </mxCell>
        <mxCell id="56dI61OKMQIGnu3YNWZv-61" value="T" style="text;html=1;align=center;verticalAlign=middle;whiteSpace=wrap;rounded=0;" vertex="1" parent="1">
          <mxGeometry x="340" y="330" width="60" height="30" as="geometry" />
        </mxCell>
        <mxCell id="56dI61OKMQIGnu3YNWZv-62" value="F" style="text;html=1;align=center;verticalAlign=middle;whiteSpace=wrap;rounded=0;" vertex="1" parent="1">
          <mxGeometry x="250" y="370" width="60" height="30" as="geometry" />
        </mxCell>
        <mxCell id="56dI61OKMQIGnu3YNWZv-63" value="" style="endArrow=classic;html=1;rounded=0;exitX=1;exitY=1;exitDx=0;exitDy=0;entryX=0;entryY=0.5;entryDx=0;entryDy=0;" edge="1" parent="1" source="56dI61OKMQIGnu3YNWZv-11" target="56dI61OKMQIGnu3YNWZv-16">
          <mxGeometry width="50" height="50" relative="1" as="geometry">
            <mxPoint x="310" y="420" as="sourcePoint" />
            <mxPoint x="360" y="370" as="targetPoint" />
          </mxGeometry>
        </mxCell>
        <mxCell id="56dI61OKMQIGnu3YNWZv-64" value="T" style="text;html=1;align=center;verticalAlign=middle;whiteSpace=wrap;rounded=0;" vertex="1" parent="1">
          <mxGeometry x="340" y="440" width="60" height="30" as="geometry" />
        </mxCell>
        <mxCell id="56dI61OKMQIGnu3YNWZv-65" value="F" style="text;html=1;align=center;verticalAlign=middle;whiteSpace=wrap;rounded=0;" vertex="1" parent="1">
          <mxGeometry x="250" y="480" width="60" height="30" as="geometry" />
        </mxCell>
        <mxCell id="56dI61OKMQIGnu3YNWZv-66" value="" style="endArrow=classic;html=1;rounded=0;exitX=1;exitY=1;exitDx=0;exitDy=0;entryX=0;entryY=0.5;entryDx=0;entryDy=0;" edge="1" parent="1" source="56dI61OKMQIGnu3YNWZv-13" target="56dI61OKMQIGnu3YNWZv-17">
          <mxGeometry width="50" height="50" relative="1" as="geometry">
            <mxPoint x="290" y="530" as="sourcePoint" />
            <mxPoint x="340" y="480" as="targetPoint" />
          </mxGeometry>
        </mxCell>
        <mxCell id="56dI61OKMQIGnu3YNWZv-67" value="T" style="text;html=1;align=center;verticalAlign=middle;whiteSpace=wrap;rounded=0;" vertex="1" parent="1">
          <mxGeometry x="340" y="555" width="60" height="30" as="geometry" />
        </mxCell>
        <mxCell id="56dI61OKMQIGnu3YNWZv-68" value="F" style="text;html=1;align=center;verticalAlign=middle;whiteSpace=wrap;rounded=0;" vertex="1" parent="1">
          <mxGeometry x="250" y="590" width="60" height="30" as="geometry" />
        </mxCell>
        <mxCell id="56dI61OKMQIGnu3YNWZv-69" value="F" style="text;html=1;align=center;verticalAlign=middle;whiteSpace=wrap;rounded=0;" vertex="1" parent="1">
          <mxGeometry x="340" y="660" width="60" height="30" as="geometry" />
        </mxCell>
        <mxCell id="56dI61OKMQIGnu3YNWZv-70" value="T" style="text;html=1;align=center;verticalAlign=middle;whiteSpace=wrap;rounded=0;" vertex="1" parent="1">
          <mxGeometry x="260" y="690" width="60" height="30" as="geometry" />
        </mxCell>
        <mxCell id="56dI61OKMQIGnu3YNWZv-71" value="T" style="text;html=1;align=center;verticalAlign=middle;whiteSpace=wrap;rounded=0;" vertex="1" parent="1">
          <mxGeometry x="260" y="800" width="60" height="30" as="geometry" />
        </mxCell>
        <mxCell id="56dI61OKMQIGnu3YNWZv-72" value="F" style="text;html=1;align=center;verticalAlign=middle;whiteSpace=wrap;rounded=0;" vertex="1" parent="1">
          <mxGeometry x="190" y="740" width="60" height="30" as="geometry" />
        </mxCell>
      </root>
    </mxGraphModel>
  </diagram>
  <diagram id="QFoVmYwOD0RQirDpKn7x" name="bài 6">
    <mxGraphModel grid="1" page="1" gridSize="10" guides="1" tooltips="1" connect="1" arrows="1" fold="1" pageScale="1" pageWidth="827" pageHeight="1169" math="0" shadow="0">
      <root>
        <mxCell id="0" />
        <mxCell id="1" parent="0" />
        <mxCell id="FmmpmLbmLfxAbidtZJb0-1" value="" style="edgeStyle=orthogonalEdgeStyle;rounded=0;orthogonalLoop=1;jettySize=auto;html=1;" edge="1" parent="1" source="FmmpmLbmLfxAbidtZJb0-2" target="FmmpmLbmLfxAbidtZJb0-5">
          <mxGeometry relative="1" as="geometry" />
        </mxCell>
        <mxCell id="FmmpmLbmLfxAbidtZJb0-2" value="entry" style="rounded=0;whiteSpace=wrap;html=1;" vertex="1" parent="1">
          <mxGeometry x="250" y="100" width="120" height="60" as="geometry" />
        </mxCell>
        <mxCell id="FmmpmLbmLfxAbidtZJb0-3" value="tong_tien *= 0.8" style="rounded=0;whiteSpace=wrap;html=1;" vertex="1" parent="1">
          <mxGeometry x="50" y="770" width="120" height="60" as="geometry" />
        </mxCell>
        <mxCell id="FmmpmLbmLfxAbidtZJb0-4" value="" style="edgeStyle=orthogonalEdgeStyle;rounded=0;orthogonalLoop=1;jettySize=auto;html=1;" edge="1" parent="1" source="FmmpmLbmLfxAbidtZJb0-5" target="FmmpmLbmLfxAbidtZJb0-8">
          <mxGeometry relative="1" as="geometry" />
        </mxCell>
        <mxCell id="FmmpmLbmLfxAbidtZJb0-5" value="so_ve_thuong &amp;lt; 0 || so_ve_thương &amp;gt; 10000" style="rhombus;whiteSpace=wrap;html=1;" vertex="1" parent="1">
          <mxGeometry x="220" y="210" width="180" height="80" as="geometry" />
        </mxCell>
        <mxCell id="FmmpmLbmLfxAbidtZJb0-6" value="return -1" style="rounded=0;whiteSpace=wrap;html=1;" vertex="1" parent="1">
          <mxGeometry x="460" y="440" width="120" height="60" as="geometry" />
        </mxCell>
        <mxCell id="FmmpmLbmLfxAbidtZJb0-7" value="" style="edgeStyle=orthogonalEdgeStyle;rounded=0;orthogonalLoop=1;jettySize=auto;html=1;" edge="1" parent="1" source="FmmpmLbmLfxAbidtZJb0-8" target="FmmpmLbmLfxAbidtZJb0-12">
          <mxGeometry relative="1" as="geometry">
            <Array as="points">
              <mxPoint x="310" y="420" />
              <mxPoint x="310" y="420" />
            </Array>
          </mxGeometry>
        </mxCell>
        <mxCell id="FmmpmLbmLfxAbidtZJb0-8" value="so_ve_vip &amp;lt; 0 || so_ve_vip &amp;gt; 10000" style="rhombus;whiteSpace=wrap;html=1;" vertex="1" parent="1">
          <mxGeometry x="197.5" y="320" width="225" height="80" as="geometry" />
        </mxCell>
        <mxCell id="FmmpmLbmLfxAbidtZJb0-9" value="tong_tien *= 0.9" style="rounded=0;whiteSpace=wrap;html=1;" vertex="1" parent="1">
          <mxGeometry x="460" y="890" width="120" height="60" as="geometry" />
        </mxCell>
        <mxCell id="FmmpmLbmLfxAbidtZJb0-10" value="" style="edgeStyle=orthogonalEdgeStyle;rounded=0;orthogonalLoop=1;jettySize=auto;html=1;" edge="1" parent="1" source="FmmpmLbmLfxAbidtZJb0-12" target="FmmpmLbmLfxAbidtZJb0-6">
          <mxGeometry relative="1" as="geometry" />
        </mxCell>
        <mxCell id="FmmpmLbmLfxAbidtZJb0-11" value="" style="edgeStyle=orthogonalEdgeStyle;rounded=0;orthogonalLoop=1;jettySize=auto;html=1;" edge="1" parent="1" source="FmmpmLbmLfxAbidtZJb0-12" target="FmmpmLbmLfxAbidtZJb0-18">
          <mxGeometry relative="1" as="geometry" />
        </mxCell>
        <mxCell id="FmmpmLbmLfxAbidtZJb0-12" value="tuoi &amp;lt;= 0 || tuoi &amp;gt; 150" style="rhombus;whiteSpace=wrap;html=1;" vertex="1" parent="1">
          <mxGeometry x="220" y="430" width="180" height="80" as="geometry" />
        </mxCell>
        <mxCell id="FmmpmLbmLfxAbidtZJb0-13" value="" style="endArrow=none;html=1;rounded=0;exitX=1;exitY=0.5;exitDx=0;exitDy=0;" edge="1" parent="1" source="FmmpmLbmLfxAbidtZJb0-8">
          <mxGeometry width="50" height="50" relative="1" as="geometry">
            <mxPoint x="360" y="390" as="sourcePoint" />
            <mxPoint x="480" y="360" as="targetPoint" />
          </mxGeometry>
        </mxCell>
        <mxCell id="FmmpmLbmLfxAbidtZJb0-14" value="" style="endArrow=classic;html=1;rounded=0;entryX=0.177;entryY=0.017;entryDx=0;entryDy=0;entryPerimeter=0;" edge="1" parent="1" target="FmmpmLbmLfxAbidtZJb0-6">
          <mxGeometry width="50" height="50" relative="1" as="geometry">
            <mxPoint x="480" y="360" as="sourcePoint" />
            <mxPoint x="410" y="340" as="targetPoint" />
          </mxGeometry>
        </mxCell>
        <mxCell id="FmmpmLbmLfxAbidtZJb0-15" value="" style="endArrow=none;html=1;rounded=0;exitX=1;exitY=0.5;exitDx=0;exitDy=0;" edge="1" parent="1" source="FmmpmLbmLfxAbidtZJb0-5">
          <mxGeometry width="50" height="50" relative="1" as="geometry">
            <mxPoint x="360" y="390" as="sourcePoint" />
            <mxPoint x="520" y="250" as="targetPoint" />
          </mxGeometry>
        </mxCell>
        <mxCell id="FmmpmLbmLfxAbidtZJb0-16" value="" style="endArrow=classic;html=1;rounded=0;entryX=0.5;entryY=0;entryDx=0;entryDy=0;" edge="1" parent="1" target="FmmpmLbmLfxAbidtZJb0-6">
          <mxGeometry width="50" height="50" relative="1" as="geometry">
            <mxPoint x="520" y="250" as="sourcePoint" />
            <mxPoint x="410" y="340" as="targetPoint" />
          </mxGeometry>
        </mxCell>
        <mxCell id="FmmpmLbmLfxAbidtZJb0-17" value="" style="edgeStyle=orthogonalEdgeStyle;rounded=0;orthogonalLoop=1;jettySize=auto;html=1;" edge="1" parent="1" source="FmmpmLbmLfxAbidtZJb0-18" target="FmmpmLbmLfxAbidtZJb0-20">
          <mxGeometry relative="1" as="geometry" />
        </mxCell>
        <mxCell id="FmmpmLbmLfxAbidtZJb0-18" value="int gia_ve_thuong = 10, gia_ve_vip = 20" style="rounded=0;whiteSpace=wrap;html=1;" vertex="1" parent="1">
          <mxGeometry x="237.39000000000001" y="554.5" width="145.22" height="60" as="geometry" />
        </mxCell>
        <mxCell id="FmmpmLbmLfxAbidtZJb0-19" value="" style="edgeStyle=orthogonalEdgeStyle;rounded=0;orthogonalLoop=1;jettySize=auto;html=1;" edge="1" parent="1" source="FmmpmLbmLfxAbidtZJb0-20" target="FmmpmLbmLfxAbidtZJb0-23">
          <mxGeometry relative="1" as="geometry" />
        </mxCell>
        <mxCell id="FmmpmLbmLfxAbidtZJb0-20" value="float tong_tien = (so_ve_thuong * gia_ve_thuong) + (so_ve_vip * gia_ve_vip)" style="rounded=0;whiteSpace=wrap;html=1;" vertex="1" parent="1">
          <mxGeometry x="240" y="660" width="140" height="60" as="geometry" />
        </mxCell>
        <mxCell id="FmmpmLbmLfxAbidtZJb0-21" value="" style="edgeStyle=orthogonalEdgeStyle;rounded=0;orthogonalLoop=1;jettySize=auto;html=1;" edge="1" parent="1" source="FmmpmLbmLfxAbidtZJb0-23" target="FmmpmLbmLfxAbidtZJb0-3">
          <mxGeometry relative="1" as="geometry" />
        </mxCell>
        <mxCell id="FmmpmLbmLfxAbidtZJb0-22" value="" style="edgeStyle=orthogonalEdgeStyle;rounded=0;orthogonalLoop=1;jettySize=auto;html=1;" edge="1" parent="1" source="FmmpmLbmLfxAbidtZJb0-23" target="FmmpmLbmLfxAbidtZJb0-26">
          <mxGeometry relative="1" as="geometry" />
        </mxCell>
        <mxCell id="FmmpmLbmLfxAbidtZJb0-23" value="(tuoi &amp;lt;= 14 || tuoi &amp;gt;= 65) &amp;amp;&amp;amp; khach_hang_than_thiet" style="rhombus;whiteSpace=wrap;html=1;" vertex="1" parent="1">
          <mxGeometry x="205" y="760" width="210" height="80" as="geometry" />
        </mxCell>
        <mxCell id="FmmpmLbmLfxAbidtZJb0-24" value="" style="edgeStyle=orthogonalEdgeStyle;rounded=0;orthogonalLoop=1;jettySize=auto;html=1;" edge="1" parent="1" source="FmmpmLbmLfxAbidtZJb0-26" target="FmmpmLbmLfxAbidtZJb0-9">
          <mxGeometry relative="1" as="geometry" />
        </mxCell>
        <mxCell id="FmmpmLbmLfxAbidtZJb0-25" value="" style="edgeStyle=orthogonalEdgeStyle;rounded=0;orthogonalLoop=1;jettySize=auto;html=1;" edge="1" parent="1" source="FmmpmLbmLfxAbidtZJb0-26" target="FmmpmLbmLfxAbidtZJb0-28">
          <mxGeometry relative="1" as="geometry" />
        </mxCell>
        <mxCell id="FmmpmLbmLfxAbidtZJb0-26" value="(tuoi &amp;lt;= 14 || tuoi &amp;gt;= 65) || khach_hang_than_thiet" style="rhombus;whiteSpace=wrap;html=1;" vertex="1" parent="1">
          <mxGeometry x="205" y="880" width="210" height="80" as="geometry" />
        </mxCell>
        <mxCell id="FmmpmLbmLfxAbidtZJb0-27" value="" style="edgeStyle=orthogonalEdgeStyle;rounded=0;orthogonalLoop=1;jettySize=auto;html=1;" edge="1" parent="1" source="FmmpmLbmLfxAbidtZJb0-28" target="FmmpmLbmLfxAbidtZJb0-29">
          <mxGeometry relative="1" as="geometry" />
        </mxCell>
        <mxCell id="FmmpmLbmLfxAbidtZJb0-28" value="return tong_tien" style="rounded=0;whiteSpace=wrap;html=1;" vertex="1" parent="1">
          <mxGeometry x="250" y="1010" width="120" height="60" as="geometry" />
        </mxCell>
        <mxCell id="FmmpmLbmLfxAbidtZJb0-29" value="exit" style="rounded=0;whiteSpace=wrap;html=1;" vertex="1" parent="1">
          <mxGeometry x="250" y="1109" width="120" height="60" as="geometry" />
        </mxCell>
        <mxCell id="FmmpmLbmLfxAbidtZJb0-30" value="" style="endArrow=none;html=1;rounded=0;" edge="1" parent="1">
          <mxGeometry width="50" height="50" relative="1" as="geometry">
            <mxPoint x="110" y="830" as="sourcePoint" />
            <mxPoint x="110" y="1040" as="targetPoint" />
          </mxGeometry>
        </mxCell>
        <mxCell id="FmmpmLbmLfxAbidtZJb0-31" value="" style="endArrow=none;html=1;rounded=0;exitX=0.5;exitY=1;exitDx=0;exitDy=0;" edge="1" parent="1" source="FmmpmLbmLfxAbidtZJb0-9">
          <mxGeometry width="50" height="50" relative="1" as="geometry">
            <mxPoint x="500" y="960" as="sourcePoint" />
            <mxPoint x="520" y="1040" as="targetPoint" />
          </mxGeometry>
        </mxCell>
        <mxCell id="FmmpmLbmLfxAbidtZJb0-32" value="" style="endArrow=classic;html=1;rounded=0;entryX=1;entryY=0.5;entryDx=0;entryDy=0;" edge="1" parent="1" target="FmmpmLbmLfxAbidtZJb0-28">
          <mxGeometry width="50" height="50" relative="1" as="geometry">
            <mxPoint x="520" y="1040" as="sourcePoint" />
            <mxPoint x="410" y="970" as="targetPoint" />
          </mxGeometry>
        </mxCell>
        <mxCell id="FmmpmLbmLfxAbidtZJb0-33" value="" style="endArrow=none;html=1;rounded=0;exitX=1;exitY=0.5;exitDx=0;exitDy=0;" edge="1" parent="1" source="FmmpmLbmLfxAbidtZJb0-6">
          <mxGeometry width="50" height="50" relative="1" as="geometry">
            <mxPoint x="450" y="870" as="sourcePoint" />
            <mxPoint x="620" y="470" as="targetPoint" />
          </mxGeometry>
        </mxCell>
        <mxCell id="FmmpmLbmLfxAbidtZJb0-34" value="" style="endArrow=none;html=1;rounded=0;" edge="1" parent="1">
          <mxGeometry width="50" height="50" relative="1" as="geometry">
            <mxPoint x="620" y="470" as="sourcePoint" />
            <mxPoint x="620" y="1140" as="targetPoint" />
          </mxGeometry>
        </mxCell>
        <mxCell id="FmmpmLbmLfxAbidtZJb0-35" value="" style="endArrow=classic;html=1;rounded=0;entryX=1;entryY=0.5;entryDx=0;entryDy=0;" edge="1" parent="1" target="FmmpmLbmLfxAbidtZJb0-29">
          <mxGeometry width="50" height="50" relative="1" as="geometry">
            <mxPoint x="620" y="1140" as="sourcePoint" />
            <mxPoint x="500" y="820" as="targetPoint" />
          </mxGeometry>
        </mxCell>
        <mxCell id="FmmpmLbmLfxAbidtZJb0-36" value="(0)" style="text;html=1;align=center;verticalAlign=middle;whiteSpace=wrap;rounded=0;" vertex="1" parent="1">
          <mxGeometry x="180" y="115" width="60" height="30" as="geometry" />
        </mxCell>
        <mxCell id="FmmpmLbmLfxAbidtZJb0-37" value="(1)" style="text;html=1;align=center;verticalAlign=middle;whiteSpace=wrap;rounded=0;" vertex="1" parent="1">
          <mxGeometry x="160" y="230" width="60" height="30" as="geometry" />
        </mxCell>
        <mxCell id="FmmpmLbmLfxAbidtZJb0-38" value="(2)" style="text;html=1;align=center;verticalAlign=middle;whiteSpace=wrap;rounded=0;" vertex="1" parent="1">
          <mxGeometry x="137.5" y="340" width="60" height="30" as="geometry" />
        </mxCell>
        <mxCell id="FmmpmLbmLfxAbidtZJb0-39" value="(3)" style="text;html=1;align=center;verticalAlign=middle;whiteSpace=wrap;rounded=0;" vertex="1" parent="1">
          <mxGeometry x="160" y="450" width="60" height="30" as="geometry" />
        </mxCell>
        <mxCell id="FmmpmLbmLfxAbidtZJb0-40" value="(4)" style="text;html=1;align=center;verticalAlign=middle;whiteSpace=wrap;rounded=0;" vertex="1" parent="1">
          <mxGeometry x="520" y="410" width="60" height="30" as="geometry" />
        </mxCell>
        <mxCell id="FmmpmLbmLfxAbidtZJb0-41" value="(5)" style="text;html=1;align=center;verticalAlign=middle;whiteSpace=wrap;rounded=0;" vertex="1" parent="1">
          <mxGeometry x="180" y="570" width="60" height="30" as="geometry" />
        </mxCell>
        <mxCell id="FmmpmLbmLfxAbidtZJb0-42" value="(6)" style="text;html=1;align=center;verticalAlign=middle;whiteSpace=wrap;rounded=0;" vertex="1" parent="1">
          <mxGeometry x="180" y="675" width="60" height="30" as="geometry" />
        </mxCell>
        <mxCell id="FmmpmLbmLfxAbidtZJb0-43" value="(7)" style="text;html=1;align=center;verticalAlign=middle;whiteSpace=wrap;rounded=0;" vertex="1" parent="1">
          <mxGeometry x="197.5" y="760" width="60" height="30" as="geometry" />
        </mxCell>
        <mxCell id="FmmpmLbmLfxAbidtZJb0-44" value="(8)" style="text;html=1;align=center;verticalAlign=middle;whiteSpace=wrap;rounded=0;" vertex="1" parent="1">
          <mxGeometry x="80" y="740" width="60" height="30" as="geometry" />
        </mxCell>
        <mxCell id="FmmpmLbmLfxAbidtZJb0-45" value="(9)" style="text;html=1;align=center;verticalAlign=middle;whiteSpace=wrap;rounded=0;" vertex="1" parent="1">
          <mxGeometry x="197.5" y="880" width="60" height="30" as="geometry" />
        </mxCell>
        <mxCell id="FmmpmLbmLfxAbidtZJb0-46" value="(10)" style="text;html=1;align=center;verticalAlign=middle;whiteSpace=wrap;rounded=0;" vertex="1" parent="1">
          <mxGeometry x="490" y="860" width="60" height="30" as="geometry" />
        </mxCell>
        <mxCell id="FmmpmLbmLfxAbidtZJb0-47" value="(11)" style="text;html=1;align=center;verticalAlign=middle;whiteSpace=wrap;rounded=0;" vertex="1" parent="1">
          <mxGeometry x="237.39" y="980" width="60" height="30" as="geometry" />
        </mxCell>
        <mxCell id="FmmpmLbmLfxAbidtZJb0-48" value="(12)" style="text;html=1;align=center;verticalAlign=middle;whiteSpace=wrap;rounded=0;" vertex="1" parent="1">
          <mxGeometry x="237.39" y="1079" width="60" height="30" as="geometry" />
        </mxCell>
        <mxCell id="FmmpmLbmLfxAbidtZJb0-49" value="F" style="text;html=1;align=center;verticalAlign=middle;whiteSpace=wrap;rounded=0;" vertex="1" parent="1">
          <mxGeometry x="257.5" y="290" width="60" height="30" as="geometry" />
        </mxCell>
        <mxCell id="FmmpmLbmLfxAbidtZJb0-50" value="T" style="text;html=1;align=center;verticalAlign=middle;whiteSpace=wrap;rounded=0;" vertex="1" parent="1">
          <mxGeometry x="430" y="220" width="60" height="30" as="geometry" />
        </mxCell>
        <mxCell id="FmmpmLbmLfxAbidtZJb0-51" value="F" style="text;html=1;align=center;verticalAlign=middle;whiteSpace=wrap;rounded=0;" vertex="1" parent="1">
          <mxGeometry x="257.5" y="400" width="60" height="30" as="geometry" />
        </mxCell>
        <mxCell id="FmmpmLbmLfxAbidtZJb0-52" value="T" style="text;html=1;align=center;verticalAlign=middle;whiteSpace=wrap;rounded=0;" vertex="1" parent="1">
          <mxGeometry x="422.5" y="330" width="60" height="30" as="geometry" />
        </mxCell>
        <mxCell id="FmmpmLbmLfxAbidtZJb0-53" value="F" style="text;html=1;align=center;verticalAlign=middle;whiteSpace=wrap;rounded=0;" vertex="1" parent="1">
          <mxGeometry x="257.5" y="510" width="60" height="30" as="geometry" />
        </mxCell>
        <mxCell id="FmmpmLbmLfxAbidtZJb0-54" value="T" style="text;html=1;align=center;verticalAlign=middle;whiteSpace=wrap;rounded=0;" vertex="1" parent="1">
          <mxGeometry x="400" y="440" width="60" height="30" as="geometry" />
        </mxCell>
        <mxCell id="FmmpmLbmLfxAbidtZJb0-55" value="F" style="text;html=1;align=center;verticalAlign=middle;whiteSpace=wrap;rounded=0;" vertex="1" parent="1">
          <mxGeometry x="257.5" y="840" width="60" height="30" as="geometry" />
        </mxCell>
        <mxCell id="FmmpmLbmLfxAbidtZJb0-56" value="T" style="text;html=1;align=center;verticalAlign=middle;whiteSpace=wrap;rounded=0;" vertex="1" parent="1">
          <mxGeometry x="160" y="770" width="60" height="30" as="geometry" />
        </mxCell>
        <mxCell id="FmmpmLbmLfxAbidtZJb0-57" value="T" style="text;html=1;align=center;verticalAlign=middle;whiteSpace=wrap;rounded=0;" vertex="1" parent="1">
          <mxGeometry x="400" y="890" width="60" height="30" as="geometry" />
        </mxCell>
        <mxCell id="FmmpmLbmLfxAbidtZJb0-58" value="F" style="text;html=1;align=center;verticalAlign=middle;whiteSpace=wrap;rounded=0;" vertex="1" parent="1">
          <mxGeometry x="257.5" y="960" width="60" height="30" as="geometry" />
        </mxCell>
        <mxCell id="FmmpmLbmLfxAbidtZJb0-59" value="" style="endArrow=classic;html=1;rounded=0;entryX=0;entryY=0.5;entryDx=0;entryDy=0;" edge="1" parent="1" target="FmmpmLbmLfxAbidtZJb0-28">
          <mxGeometry width="50" height="50" relative="1" as="geometry">
            <mxPoint x="110" y="1040" as="sourcePoint" />
            <mxPoint x="380" y="890" as="targetPoint" />
          </mxGeometry>
        </mxCell>
      </root>
    </mxGraphModel>
  </diagram>
</mxfile>
